# xmcd
#
# Track frame offsets:
#	150
#	12361
#	23851
#	36836
#	48760
#	59218
#	72617
#	84879
#	97917
#	108922
#	118018
#	129957
#	140798
#	153034
#	163155
#	176112
#	186931
#	198210
#	212246
#	222630
#	233880
#	245522
#	256983
#	268331
#	278643
#
# Disc length: 3895 seconds
#
# Revision: 1
# Processed by: cddbd v1.5.2PL0 Copyright (c) Steve Scherf et al.
# Submitted via: audiograbber 1.83.01
#
DISCID=750f3519
DTITLE=Sampler - Rythm'N'Blues shouters - CD 1
DYEAR=1900
DGENRE=rhythm'n'blues
TTITLE0=Roy Brown - Mr. Hound Dog's In Town
TTITLE1=Big John Greer - Bottle It Up And Go
TTITLE2=Jimmy Rushing - Hi-Ho-Sylvester
TTITLE3=The Sly Fox - I'm Tired Of Beggin'
TTITLE4=Tiny Grimes - Hey Now
TTITLE5=Gene Phillips - Rock Bottom
TTITLE6=Louis Jordan - Caldonia
TTITLE7=Stomp Gordon - Damp Rag
TTITLE8=Big Joe Turner - Shake, Rattle And Roll
TTITLE9=Lionel Hampton - Hey! Ba-Ba-Re-Bop
TTITLE10=Wynonie Harris - Sittin' On It All The Time
TTITLE11=Goree Carter - She's Just Old Fashioned
TTITLE12=Calvin Boze - Safronia B.
TTITLE13=Freddie Kohlman Orch. - Hole In The Ground
TTITLE14=Dave Bartholomew - My Ding-A-Ling
TTITLE15=Fats Noel - Ride Daddy, Ride
TTITLE16=Big Bill Broonzy - You've Been Mistreating Me
TTITLE17=Milt Trenier - Flip Our Wigs
TTITLE18=Tiny Bradshaw - Breakin' Up The House
TTITLE19=Jimmy Wilson - Jumpin' From Six To Six
TTITLE20=H-Bomb Ferguson - I Love My Baby
TTITLE21=Bullmoose Jackson - Big Ten Inch Record
TTITLE22=Champion Jack Dupree - Shim Sham Shimmy
TTITLE23=B. B. King - Shake It Up And Go
TTITLE24=T-Bone Walker - The Hustle Is On
EXTD=
EXTT0=
EXTT1=
EXTT2=
EXTT3=
EXTT4=
EXTT5=
EXTT6=
EXTT7=
EXTT8=
EXTT9=
EXTT10=
EXTT11=
EXTT12=
EXTT13=
EXTT14=
EXTT15=
EXTT16=
EXTT17=
EXTT18=
EXTT19=
EXTT20=
EXTT21=
EXTT22=
EXTT23=
EXTT24=
PLAYORDER=
